<svg width="26" height="26" viewBox="0 0 26 26" xmlns="http://www.w3.org/2000/svg" xmlns:xlink="http://www.w3.org/1999/xlink">
    <defs>
        <linearGradient x1="0%" y1="20.317%" x2="85.962%" y2="69.029%" id="cmkxmey43b">
            <stop stop-color="#54B06A" offset="0%"/>
            <stop stop-color="#65B262" offset="100%"/>
        </linearGradient>
        <linearGradient x1="82.514%" y1="29.457%" x2="1.706%" y2="76.811%" id="d4l3m628xe">
            <stop stop-color="#E63C49" offset="0%"/>
            <stop stop-color="#DF2253" offset="100%"/>
        </linearGradient>
        <linearGradient x1="0%" y1="50%" x2="100%" y2="50%" id="4n115tuj5h">
            <stop stop-color="#FCC410" offset="0%"/>
            <stop stop-color="#FDE90F" offset="100%"/>
        </linearGradient>
        <linearGradient x1="50%" y1="0%" x2="50%" y2="100%" id="8phnpcarbk">
            <stop stop-color="#EEE" offset="0%"/>
            <stop stop-color="#EEE" offset="0%"/>
            <stop stop-color="#48BCE9" offset="0%"/>
            <stop stop-color="#62C4E1" offset="100%"/>
        </linearGradient>
        <path d="m0 .254 9.719 9.759 1.843-.873c.958-.539 2.39-1.842 1.434-2.383L1.402.227C1.13.074.87 0 .64 0A.879.879 0 0 0 0 .254" id="7th8b7nj0a"/>
        <path d="M3.073 6.01 0 9.687c.17.212.407.324.689.325H.69c.23 0 .49-.075.766-.231l11.505-6.537c.952-.685.108-1.213-.848-1.754L9.734 0l-6.66 6.01z" id="zadukrvvwd"/>
        <path d="m0 3.25 3.227 3.244 4.028-2.29c.12-.067.225-.14.314-.216.09-.077.165-.158.225-.241.015-.021.03-.042.042-.063.302-.487.109-1.053-.579-1.441L3.261 0 0 3.25z" id="blgf3i8img"/>
        <path d="M0 .983.02 18.5c0 .39.1.715.27.927l9.735-9.688L.335 0C.125.21 0 .545 0 .983" id="k3m5wcc6tj"/>
    </defs>
    <g fill="none" fill-rule="evenodd">
        <g transform="translate(6.33 3)">
            <mask id="q60wr17byc" fill="#fff">
                <use xlink:href="#7th8b7nj0a"/>
            </mask>
            <path d="m0 .254 9.719 9.759 1.843-.873c.958-.539 2.39-1.842 1.434-2.383L1.402.227C1.13.074.87 0 .64 0A.879.879 0 0 0 0 .254" fill="url(#cmkxmey43b)" mask="url(#q60wr17byc)"/>
        </g>
        <g transform="translate(6.291 12.988)">
            <mask id="hfr1dfm4gf" fill="#fff">
                <use xlink:href="#zadukrvvwd"/>
            </mask>
            <path d="M3.073 6.01 0 9.687c.17.212.407.324.689.325H.69c.23 0 .49-.075.766-.231l11.505-6.537c.952-.685.108-1.213-.848-1.754L9.734 0l-6.66 6.01z" fill="url(#d4l3m628xe)" mask="url(#hfr1dfm4gf)"/>
        </g>
        <g transform="translate(16.026 9.74)">
            <mask id="0ei7w3oc7i" fill="#fff">
                <use xlink:href="#blgf3i8img"/>
            </mask>
            <path d="m0 3.25 3.227 3.244 4.028-2.29c.12-.067.225-.14.314-.216.09-.077.165-.158.225-.241.015-.021.03-.042.042-.063.302-.487.109-1.053-.579-1.441L3.261 0 0 3.25z" fill="url(#4n115tuj5h)" mask="url(#0ei7w3oc7i)"/>
        </g>
        <g transform="translate(6 3.25)">
            <mask id="wvfm4nyubl" fill="#fff">
                <use xlink:href="#k3m5wcc6tj"/>
            </mask>
            <path d="M0 .983.02 18.5c0 .39.1.715.27.927l9.735-9.688L.335 0C.125.21 0 .545 0 .983" fill="url(#8phnpcarbk)" mask="url(#wvfm4nyubl)"/>
        </g>
        <path d="M23.748 12.353c.32.493.155 1.137-.588 1.541L7.643 22.716c-.597.336-1.113.206-1.427-.145.294.464.843.584 1.538.195l15.517-8.822c.778-.415.923-1.073.477-1.59z" fill="#CCC"/>
    </g>
</svg>
