<svg width="36" height="36" viewBox="0 0 36 36" xmlns="http://www.w3.org/2000/svg">
    <g fill="none" fill-rule="evenodd">
        <path d="M0 18C0 8.059 8.059 0 18 0s18 8.059 18 18-8.059 18-18 18S0 27.941 0 18z" fill="#000"/>
        <path d="M13.967 14.742h-3.6v10.795h3.6V14.742zm.238-3.34c-.024-1.058-.782-1.864-2.014-1.864-1.232 0-2.037.806-2.037 1.864 0 1.037.781 1.866 1.99 1.866h.023c1.256 0 2.038-.83 2.038-1.866zm12.749 7.945c0-3.315-1.777-4.859-4.146-4.859-1.912 0-2.768 1.048-3.246 1.783v-1.529h-3.601c.047 1.013 0 10.796 0 10.796h3.601v-6.03c0-.322.023-.644.119-.875.26-.645.852-1.312 1.847-1.312 1.304 0 1.825.99 1.825 2.44v5.776h3.6v-6.19z" fill="#FFF"/>
    </g>
</svg>
