<svg width="150" height="150" viewBox="0 0 150 150" xmlns="http://www.w3.org/2000/svg">
    <g fill="none" fill-rule="evenodd">
        <path d="m15.774 65 20.952-36.292a20 20 0 0 1 17.321-10h41.906a20 20 0 0 1 17.32 10L134.227 65a20 20 0 0 1 0 20l-20.952 36.292a20 20 0 0 1-17.321 10H54.047a20 20 0 0 1-17.32-10L15.773 85a20 20 0 0 1 0-20z" fill="#F4F4F4"/>
        <g transform="translate(54 52)" stroke="#222" stroke-width="2.5">
            <path d="M10.892 18.876c1.482-3.476 2.57-6.096 3.265-7.859.682-1.73 2.093-5.301 4.232-10.712h-.001a.466.466 0 0 1 .45-.299c4.272.128 6.408 2.157 6.408 6.086v10.553c0 .257.209.464.465.464h13.45c3.5.092 5.1 1.734 4.804 4.925"/>
            <path d="m44 21.843-2.844 17.483c-.478 2.234-2.012 3.352-4.603 3.352h-20.88"/>
            <rect y="18.668" width="11.192" height="24.332" rx=".187"/>
        </g>
    </g>
</svg>
