<svg width="150" height="150" viewBox="0 0 150 150" xmlns="http://www.w3.org/2000/svg">
    <g fill="none" fill-rule="evenodd">
        <path d="m15.774 65 20.952-36.292a20 20 0 0 1 17.321-10h41.906a20 20 0 0 1 17.32 10L134.227 65a20 20 0 0 1 0 20l-20.952 36.292a20 20 0 0 1-17.321 10H54.047a20 20 0 0 1-17.32-10L15.773 85a20 20 0 0 1 0-20z" fill="#F4F4F4"/>
        <g stroke="#222" stroke-width="2.5">
            <g transform="rotate(59 10.06 102.325)">
                <circle cx="19.236" cy="23.452" r="4"/>
                <path d="M19.362 0C11.594 6.29 7.71 15.202 7.71 26.737" stroke-linecap="round"/>
                <path d="M7.71 26.737c.433 7.934 2.042 14.161 4.826 18.681"/>
                <path d="M19.458.003c7.768 6.29 11.652 15.202 11.652 26.738" stroke-linecap="round"/>
                <path d="M31.11 26.74c-.434 7.935-2.042 14.162-4.826 18.682"/>
                <path d="M7.71 22.177 2.85 26.74C.951 28.723 0 31.368 0 34.678V46.25a1 1 0 0 0 1.662.75l8.078-7.13h0M31.188 22.183l4.858 4.564c1.9 1.982 2.851 4.628 2.851 7.937v11.573a1 1 0 0 1-1.661.75l-8.078-7.129h0M11.507 9.952h15.83M9.398 37.952h19.76" stroke-linecap="round"/>
            </g>
            <path stroke-linecap="round" d="m60.114 75.137 3.516 5.851M67.191 86.924l-3.515-5.851"/>
            <g stroke-linecap="square">
                <path d="m54.555 78.215-5.143 3.09M61.766 90.215l-5.143 3.09M59.018 83.7l-14.572 8.755"/>
            </g>
        </g>
    </g>
</svg>
