<svg width="150" height="150" viewBox="0 0 150 150" xmlns="http://www.w3.org/2000/svg">
    <g fill="none" fill-rule="evenodd">
        <path d="m15.774 65 20.952-36.292a20 20 0 0 1 17.321-10h41.906a20 20 0 0 1 17.32 10L134.227 65a20 20 0 0 1 0 20l-20.952 36.292a20 20 0 0 1-17.321 10H54.047a20 20 0 0 1-17.32-10L15.773 85a20 20 0 0 1 0-20z" fill="#F4F4F4"/>
        <g transform="translate(52 53)" stroke="#222">
            <path d="M27.915 40.78H.531A.534.534 0 0 1 0 40.244V8.585h45.102c.293 0 .53.24.53.537v8.982" stroke-width="2.5"/>
            <ellipse stroke-width="2.4" cx="41.388" cy="33.268" rx="10.612" ry="10.732"/>
            <path d="M0 8.69V.53A.53.53 0 0 1 .53 0h20.035c1.079 0 2.05.653 2.457 1.652l2.93 7.196" stroke-width="2.5"/>
            <path stroke-width="2.5" stroke-linecap="square" d="M7.959 17.707h12.735M7.959 25.22h12.735"/>
            <path stroke-width="2.4" d="m46.476 29.671-6.003 6.071-3.881-3.924"/>
        </g>
    </g>
</svg>
