<svg width="124" height="40" viewBox="0 0 124 40" xmlns="http://www.w3.org/2000/svg" xmlns:xlink="http://www.w3.org/1999/xlink">
    <defs>
        <path id="lt62xt8lwa" d="M0 0h12.524v16.602H0z"/>
    </defs>
    <g fill="none" fill-rule="evenodd">
        <path d="M0 0h91v40H0z"/>
        <path fill="#36C2CC" d="M101.177 16.08v-3.223h4.419V9.312h-4.42V6.814h5.61V3.273H97.13v16.33h9.79V16.08zM5.922 3.273H4.007v3.54h2.702v7.814c0 .409-.063.728-.187.954a1.308 1.308 0 0 1-.444.51 1.254 1.254 0 0 1-.583.205 5.569 5.569 0 0 1-1.466-.033c-.275-.048-.48-.082-.617-.115L3 19.51c.351.106.744.194 1.188.263.443.067.884.1 1.327.1a7.76 7.76 0 0 0 2.049-.26 4.577 4.577 0 0 0 1.662-.829c.473-.377.846-.874 1.117-1.487.277-.614.414-1.351.414-2.215V3.272H5.922zM20.06 16.08v-3.223h4.42V9.312h-4.42V6.814h5.609V3.273h-9.654v16.33h9.79V16.08zM33.885 3.273h-1.916v3.541h2.702v7.813c0 .409-.063.727-.186.954a1.259 1.259 0 0 1-1.028.715 5.49 5.49 0 0 1-1.466-.033c-.275-.048-.479-.083-.617-.115l-.411 3.362c.35.106.744.194 1.188.263.443.067.883.1 1.327.1.734 0 1.416-.087 2.049-.26a4.573 4.573 0 0 0 1.66-.83c.474-.376.847-.873 1.12-1.486.275-.614.413-1.351.413-2.215V3.272h-4.835zM52.31 12.131c0 .755-.026 1.398-.077 1.929-.058.53-.164.962-.32 1.294-.163.333-.392.572-.69.715-.299.145-.683.218-1.155.218-.473 0-.854-.073-1.144-.218-.289-.143-.514-.382-.674-.715-.161-.332-.27-.764-.33-1.294a16.87 16.87 0 0 1-.094-1.929V3.319h-4.048v9.288c0 1.12.093 2.125.285 3.02.192.894.523 1.656.996 2.283.472.628 1.115 1.108 1.932 1.442.815.331 1.844.5 3.077.5 1.236 0 2.26-.169 3.078-.5.815-.334 1.465-.814 1.933-1.442.473-.627.803-1.39.995-2.283.19-.895.284-1.9.284-3.02V3.319h-4.047v8.812zM74.039 15.617c-.147.248-.34.444-.586.59a2.603 2.603 0 0 1-.81.306c-.299.06-.59.09-.882.09-.26 0-.469-.003-.63-.01a4.308 4.308 0 0 1-.4-.035v-3.816h.937c.767 0 1.385.142 1.868.42.479.28.72.785.72 1.51 0 .38-.074.693-.217.945zm-2.643-9.483c.228 0 .467.023.71.068.243.043.465.129.661.25.2.118.363.287.494.5.13.212.192.475.192.794 0 .651-.183 1.109-.546 1.374-.367.266-.88.398-1.535.398h-.64v-3.36c.091-.018.202-.024.333-.024h.331zm6.726 7.132a3.958 3.958 0 0 0-.606-1.17 3.664 3.664 0 0 0-.87-.817 5.041 5.041 0 0 0-1.018-.534c.487-.318.893-.771 1.213-1.352.32-.583.478-1.231.478-1.941 0-.864-.159-1.58-.49-2.147a3.779 3.779 0 0 0-1.337-1.365c-.565-.338-1.224-.581-1.98-.725A13.02 13.02 0 0 0 71.076 3h-4.301v16.874h4.301v-.001h.046a16.96 16.96 0 0 0 2.882-.228c.887-.15 1.644-.413 2.287-.792a4.081 4.081 0 0 0 1.51-1.546c.368-.65.549-1.475.549-2.474 0-.592-.077-1.115-.228-1.567zM86.557 16.08v-3.223h4.419V9.312h-4.419V6.814h5.609V3.273H82.51v16.33h9.79V16.08z"/>
        <g transform="translate(111.476 3)">
            <mask id="vv96jkqd9b" fill="#fff">
                <use xlink:href="#lt62xt8lwa"/>
            </mask>
            <path d="M8.922 9.538c.244-.182.494-.4.742-.659a4.76 4.76 0 0 0 .687-.909c.206-.348.373-.744.503-1.191.13-.446.195-.95.195-1.51 0-1.046-.206-1.908-.617-2.59A4.639 4.639 0 0 0 8.83 1.067 6.762 6.762 0 0 0 6.59.24C5.75.079 4.906 0 4.07 0H0v16.602h4.027V3.541c.028-.013.1-.028.203-.044.108-.015.237-.023.392-.023.625 0 1.15.175 1.575.522.43.35.644.902.644 1.659 0 .393-.067.772-.196 1.135-.13.364-.288.693-.482.988a4.017 4.017 0 0 1-.618.76 2.482 2.482 0 0 1-.604.454l-.205.114 3.278 7.496h4.51L8.922 9.538z" fill="#36C2CC" mask="url(#vv96jkqd9b)"/>
        </g>
        <path d="M43.88 32.675c0-1.703-.5-2.558-1.504-2.558-1.021 0-1.532.855-1.532 2.558 0 .851.123 1.488.37 1.904.247.418.633.628 1.151.628 1.009 0 1.515-.845 1.515-2.532m-5.234 0c0-.627.071-1.208.218-1.742.147-.534.369-.997.673-1.389.305-.39.69-.697 1.156-.92.471-.222 1.026-.336 1.672-.336.645 0 1.202.114 1.666.336.464.223.848.53 1.153.92.301.392.526.855.67 1.39.148.533.22 1.114.22 1.741 0 .626-.072 1.2-.22 1.729-.144.528-.369.984-.67 1.37-.305.387-.69.69-1.153.903-.464.216-1.02.323-1.666.323-.646 0-1.2-.107-1.672-.323a3.089 3.089 0 0 1-1.156-.903 3.842 3.842 0 0 1-.673-1.37 6.424 6.424 0 0 1-.218-1.729M35.04 34.844c-.321.11-.595.188-.821.235-.224.045-.46.068-.715.068-1.4 0-2.1-.826-2.1-2.484 0-.845.176-1.48.526-1.905.35-.426.843-.64 1.48-.64.138 0 .26.006.38.018.12.012.235.029.353.054.121.021.242.055.373.09.133.041.273.088.43.142l.499-1.72a5.406 5.406 0 0 0-1.137-.33 6.644 6.644 0 0 0-1.073-.083c-.637 0-1.21.11-1.713.33a3.5 3.5 0 0 0-1.266.914 3.94 3.94 0 0 0-.787 1.388 5.365 5.365 0 0 0-.275 1.742c0 .624.089 1.204.264 1.734.17.533.428.99.77 1.37.345.385.768.683 1.277.899.509.216 1.094.322 1.766.322a7.054 7.054 0 0 0 1.085-.076c.182-.028.37-.068.567-.124.198-.053.41-.124.637-.21l-.52-1.734zM55.306 28.453l-1.733 4.362-1.677-4.362h-2.103l-.342 8.372h1.9l.133-4.806 1.154 3.153h1.574l1.298-3.202.163 4.855h2.008l-.4-8.372zM65.055 32.168c-.214.198-.489.295-.83.295-.103 0-.201-.005-.295-.012a.747.747 0 0 1-.2-.035V30.05c.063-.008.127-.012.19-.012h.165c.172 0 .337.02.495.06a.958.958 0 0 1 .69.592c.067.159.102.355.102.59 0 .399-.106.695-.317.89m2.126-2.414a2.425 2.425 0 0 0-.836-.908 3.186 3.186 0 0 0-1.151-.44 6.993 6.993 0 0 0-1.264-.118h-2.244v8.536h2.045v-2.731c.062.015.17.028.324.041.154.011.305.016.456.016.377 0 .743-.046 1.106-.14.358-.094.676-.25.955-.47.28-.217.503-.51.673-.878.168-.366.255-.83.255-1.384 0-.624-.108-1.131-.319-1.524M73.596 30.645l.754 3.015h-1.544l.79-3.015zm1.157-2.202h-2.208l-2.645 8.37h2.052l.43-1.583c.217 0 2.134-.023 2.37-.023l.444 1.606h2.164l-2.607-8.37zM85.304 28.453v4.595l-2.742-4.595H80.84v8.36h1.9v-4.56l2.746 4.56h1.706l.011-8.36zM97.725 28.453h-2.233L94.1 31.714l-1.452-3.26h-2.265c.201.422.418.861.636 1.32.22.455.444.915.666 1.37.225.457.45.913.674 1.371l.644 1.32v2.978h2.092v-2.978l2.631-5.382z" fill="#36C2CC"/>
    </g>
</svg>
