<svg width="141" height="40" viewBox="0 0 141 40" xmlns="http://www.w3.org/2000/svg">
    <g fill="none" fill-rule="evenodd">
        <path d="M0 0h141v40H0z"/>
        <path fill="#231F20" d="M24 25h.01l8.011-8.91V25H33V15zM34 13h.004L39 7zM48.913 16.887v.031c0 1.618 1.04 2.489 3.587 3 1.886.379 2.91.834 2.91 2.155v.03c0 1.177-1.063 2.002-2.582 2.002-1.47 0-2.51-.429-3.712-1.532l-.051-.047-.599.684.05.045c1.312 1.165 2.628 1.685 4.267 1.685 2.084 0 3.54-1.199 3.54-2.914v-.027c0-1.567-1.046-2.445-3.498-2.943-2.508-.51-2.998-1.196-2.998-2.21v-.033c0-1.1 1.047-1.898 2.492-1.898 1.576 0 2.47.616 3.404 1.419l.6-.68c-1.089-.918-2.036-1.573-3.975-1.573-1.958 0-3.435 1.207-3.435 2.806M34.205 19.512c0 3.032 2.47 5.487 5.515 5.487a5.507 5.507 0 0 0 3.958-1.67v-3.884h-4.415v.852h3.5v2.71a4.627 4.627 0 0 1-3.043 1.143c-2.573 0-4.66-2.077-4.66-4.638 0-2.56 2.087-4.637 4.66-4.637 1.141 0 2.185.41 2.995 1.087l.55-.652a5.509 5.509 0 0 0-3.545-1.285c-3.045 0-5.515 2.456-5.515 5.487M77.714 14.218v10.588h.914v-9.192l4.21 5.175 4.212-5.175v9.192h.915V14.218h-.878l-4.249 5.219-4.245-5.219zM68.001 14.218v10.588h7.528v-.853h-6.614v-4.014h5.836v-.854h-5.836V15.07h6.42v-.852zM64.903 20.47h-3.951l3.95-4.856v4.856zm.036-6.252-8.616 10.588h1.1l2.835-3.485h4.645v3.485h.914V14.218h-.878zM98.018 14.218 89.4 24.806h1.101l7.48-9.192v7.237l5.891-7.237v9.192h.912V14.218h-.877l-5.01 6.156v-6.156zM116.398 19.512c0 2.561-2.087 4.638-4.66 4.638-2.574 0-4.66-2.077-4.66-4.638 0-2.56 2.086-4.637 4.66-4.637 2.573 0 4.66 2.076 4.66 4.637m-10.176 0c0 3.032 2.47 5.488 5.516 5.488 3.045 0 5.514-2.456 5.514-5.488 0-3.031-2.47-5.488-5.514-5.488-3.046 0-5.516 2.457-5.516 5.488M137 24.806v-.851h-5.447v-9.737h-.915v10.588zM128.347 19.512c0 2.561-2.087 4.637-4.66 4.637s-4.659-2.076-4.659-4.637c0-2.56 2.086-4.637 4.66-4.637 2.572 0 4.659 2.076 4.659 4.637m-10.174 0c0 3.032 2.469 5.488 5.515 5.488 3.045 0 5.514-2.456 5.514-5.488 0-3.031-2.47-5.488-5.514-5.488-3.046 0-5.515 2.457-5.515 5.488"/>
        <path fill="#231F20" d="m31.89 14.218-7.48 9.193v-9.193h-.914v10.588h.87l8.402-10.316v-.272zM16.963 25c2.402 0 4.349-1.936 4.349-4.326v-6.456h-.915v6.456a3.426 3.426 0 0 1-3.434 3.417 3.426 3.426 0 0 1-3.434-3.417v-6.456h-.914v6.456c0 2.39 1.947 4.326 4.348 4.326M7.056 24.091a2.46 2.46 0 0 1-2.228-1.414L4 23.061A3.374 3.374 0 0 0 7.056 25a3.365 3.365 0 0 0 3.375-3.358v-7.424h-.914v7.424a2.455 2.455 0 0 1-2.461 2.45"/>
        <path fill="#EB008B" d="m37.765 7-4.481 5.506h1.099L38.867 7z"/>
    </g>
</svg>
