<svg width="142" height="40" viewBox="0 0 142 40" xmlns="http://www.w3.org/2000/svg">
    <g fill="none" fill-rule="evenodd">
        <path d="M0 0h142v40H0z"/>
        <path d="M49.716 13.093v2.2h11.489v3.329H49.203v2.203h15.233v-2.203h-.742v-5.53H49.716zm0 9.071v2.202h11.489v3.769h2.489v-5.97H49.716zM68.988 18.29c-.411 0-.713-.096-.899-.283-.201-.21-.3-.565-.3-1.058v-3.857h13.977v2.095h-11.47v1.007h11.47v2.095H68.988z" fill="#231F20"/>
        <path fill="#231F20" d="M73.525 19.222v-1.354h2.507v1.354h6.248v2.186H67.276v-2.186z"/>
        <path d="M74.815 19.858c1.303 0 2.475.397 3.511 1.196 1.13.869 1.693 1.943 1.693 3.225 0 1.374-.547 2.518-1.638 3.434C77.354 28.572 76.17 29 74.815 29c-1.403 0-2.612-.428-3.639-1.287-1.082-.916-1.623-2.06-1.623-3.434 0-1.292.567-2.367 1.695-3.225 1.036-.8 2.225-1.196 3.567-1.196zm-.038 1.83c-.729 0-1.357.24-1.886.724-.541.503-.813 1.12-.813 1.85 0 .728.272 1.338.813 1.831.53.493 1.157.74 1.886.74.72 0 1.347-.247 1.888-.74.554-.493.831-1.103.831-1.83 0-.732-.277-1.348-.83-1.851a2.745 2.745 0 0 0-1.889-.723zM97.459 28.135h2.38V13.092h-2.38v15.043zm-9.744-11.909c-.317.59-.475 1.298-.475 2.132 0 .824.158 1.527.475 2.116.355.635.83.951 1.43.951.602 0 1.083-.316 1.448-.951.327-.576.492-1.282.492-2.116 0-.834-.165-1.542-.492-2.132-.365-.643-.846-.967-1.447-.967-.601 0-1.076.324-1.43.967zm4.627-1.495c.703.986 1.058 2.196 1.058 3.627 0 1.41-.355 2.61-1.058 3.595-.79 1.093-1.851 1.638-3.18 1.638-1.341 0-2.398-.545-3.176-1.638-.707-.986-1.06-2.185-1.06-3.595 0-1.431.353-2.641 1.06-3.627.778-1.093 1.835-1.64 3.176-1.64 1.329 0 2.39.547 3.18 1.64z" fill="#231F20"/>
        <path fill="#231F20" d="M93.062 17.214H94.3v-4.122h2.313v15.043h-2.313v-8.597h-1.237zM115.427 28.293h2.488V13.092h-2.488v15.201zm-5.701-12.434c.093 2.183.445 3.832 1.056 4.95.555 1.021 1.354 1.632 2.4 1.83v2.45c-1.13-.14-2.093-.522-2.893-1.145-.8-.634-1.417-1.491-1.852-2.572a6.093 6.093 0 0 1-2.011 2.572 6.09 6.09 0 0 1-2.737 1.144v-2.432c1.024-.22 1.818-.844 2.383-1.867.624-1.126.982-2.771 1.077-4.93h-3.25v-2.203h3.25v-1.374h2.593v1.374h3.212v2.203h-3.228zM125.574 17.848h2.083v-2.554h-2.083v2.554zm-.28 8.033h8.222v-2.183h-8.222v2.183zm-2.456-4.369h13.149v5.234c0 .492-.103.845-.317 1.057-.191.174-.484.26-.885.26h-10.748c-.41 0-.71-.086-.898-.26-.2-.212-.3-.565-.3-1.057v-5.234zm7.237-3.664h3.601v2.203h-11.755v-2.203h1.235v-2.554h-1.235v-2.202h9.424v2.202h-1.27v2.554z"/>
        <path fill="#231F20" d="M135.987 17.813v2.783H133.5v-7.504h2.487v2.518H138v2.203z"/>
        <path fill="#2E3092" d="M8.02 12.866h4.63l-1.518 5.656 6.374-5.656h6.162l-6.99 5.65 3.219 9.317h-5.708l-1.508-6.155-3.068 2.502-.98 3.653H4z"/>
        <path d="m28.695 18.104 1.407-5.238h-4.634l-2.217 8.262c1.066-.892 2.978-1.828 5.32-2.568l.124-.456zM38.509 17.75l1.31-4.884h-4.654l-1.219 4.54c2.057-.22 3.721-.103 4.563.344" fill="#00A550"/>
        <path d="M47.187 12.615c-.662-4.994-10.962-7.752-23.01-6.169-8.71 1.148-15.945 4.253-19.042 7.77 3.264-2.743 9.237-5.066 16.271-5.99 11.036-1.453 20.473 1.078 21.075 5.65.304 2.285-1.426 4.504-4.612 6.322-1.36 1-3.73 2.036-6.526 2.758-3.983 1.029-7.519 1.085-8.644.227l-1.25 4.65h4.633l.896-3.331a41.266 41.266 0 0 0 5.221-.586l-1.053 3.917h4.653l1.396-5.193c6.403-2.17 10.53-5.941 9.992-10.025" fill="#00A550"/>
        <path d="M37.006 18.914c.273 1.048-2.317 2.62-5.78 3.513-3.462.895-6.49.772-6.76-.271-.273-1.048 2.315-2.62 5.778-3.515 3.463-.893 6.492-.77 6.762.273" fill="#2E3092"/>
    </g>
</svg>
