<svg width="86" height="40" viewBox="0 0 86 40" xmlns="http://www.w3.org/2000/svg" xmlns:xlink="http://www.w3.org/1999/xlink">
    <defs>
        <path id="ewrhjp8wza" d="M0 0h20.646v22.332H0z"/>
        <path id="zdw7x2ji9c" d="M0 0h11.35v9.514H0z"/>
        <path id="wuif8yynwe" d="M0 0h6.024v7.702H0z"/>
    </defs>
    <g fill="none" fill-rule="evenodd">
        <path d="M0 0h86v40H0z"/>
        <g transform="translate(9.906 4)">
            <mask id="prj9s3lhwb" fill="#fff">
                <use xlink:href="#ewrhjp8wza"/>
            </mask>
            <path d="M20.639 22.244 7.668.029a.06.06 0 0 0-.102 0L.008 13.093a.058.058 0 0 0 0 .06l5.594 9.15a.06.06 0 0 0 .05.03h14.935c.046 0 .074-.05.052-.09" fill="#F6323E" mask="url(#prj9s3lhwb)"/>
        </g>
        <g transform="translate(4 26.332)">
            <mask id="mws8eadb5d" fill="#fff">
                <use xlink:href="#zdw7x2ji9c"/>
            </mask>
            <path d="M11.29 0H.06a.059.059 0 0 0-.052.089l5.616 9.396a.06.06 0 0 0 .102 0L11.341.09a.059.059 0 0 0-.05-.089" fill="#FED198" mask="url(#mws8eadb5d)"/>
        </g>
        <path d="m64.781 30.207.06.03.345-1.917a6.163 6.163 0 0 0-.867-.31 3.24 3.24 0 0 0-.832-.108c-.612 0-1.148.132-1.593.392-.444.261-.787.614-1.018 1.05a3.008 3.008 0 0 0-.345 1.602c.02.373.13.687.327.934.198.248.494.486.881.707.035.024.084.055.153.096.174.109.308.197.399.263a.981.981 0 0 1 .232.23.504.504 0 0 1 .093.296.774.774 0 0 1-.076.32.699.699 0 0 1-.223.272.595.595 0 0 1-.36.107c-.13 0-.308-.038-.528-.115a3.835 3.835 0 0 1-.68-.318 3.425 3.425 0 0 1-.581-.423l-.379 2.123c.263.17.573.308.92.408.354.102.735.154 1.132.154.563 0 1.072-.14 1.51-.415a2.891 2.891 0 0 0 1.022-1.09 2.987 2.987 0 0 0 .357-1.574 1.597 1.597 0 0 0-.216-.77 1.963 1.963 0 0 0-.477-.538 7.565 7.565 0 0 0-.744-.49 5.278 5.278 0 0 1-.418-.283.82.82 0 0 1-.209-.224.52.52 0 0 1-.066-.266c0-.17.059-.321.176-.448.117-.127.291-.191.517-.191.249 0 .516.059.795.175h.002c.27.106.484.216.691.321M73.074 31.713l-.389-.011.42-2.222h.408c.374 0 .564.248.564.736 0 .223-.032.45-.096.678a1.452 1.452 0 0 1-.308.58c-.141.159-.321.24-.6.239zm2.723 4.15-1.334-3.142c.551-.23.96-.7 1.163-1.136.203-.436.306-.917.306-1.428 0-.09-.001-.157-.005-.2-.026-.568-.214-1.012-.556-1.323-.343-.31-.824-.468-1.43-.468h-2.442l-1.384 7.697h1.881l.506-2.86 1.274 2.86h2.02zM36.843 32.457c-.12.419-.31.778-.565 1.068-.258.292-.587.44-.98.44h-.248l.004-.024.706-3.915h.257c.317 0 .561.089.726.263.165.173.256.436.274.78.003.034.005.092.005.169 0 .392-.06.802-.18 1.22m1.521-3.682c-.456-.405-1.123-.61-1.984-.61h-2.352l-1.384 7.697h2.36c.922 0 1.701-.243 2.316-.723a4.271 4.271 0 0 0 1.367-1.85 6.478 6.478 0 0 0 .43-2.701c-.044-.798-.298-1.408-.753-1.813M42.106 31.101l.197-1.107h2.125l.333-1.828H40.57l-1.384 7.697h4.233l.328-1.828h-2.165l.004-.025.207-1.183h1.82l.308-1.701H42.1zM45.869 28.054l-1.39 7.748h1.922l.646-4.073 1.396 4.134h1.823l1.394-7.758h-1.83l-.822 4.293-1.39-4.344zM52.375 28.166l-.329 1.828h1.478l-1.055 5.87h2.063l1.054-5.87h1.432l.329-1.828zM58.845 35.863l1.384-7.697H58.16l-1.383 7.697zM65.86 28.166l-.329 1.828h1.387l-1.055 5.87h2.062l1.055-5.87h1.432l.329-1.828z" fill="#382615"/>
        <g transform="translate(75.976 28.16)">
            <mask id="r71ce7dp1f" fill="#fff">
                <use xlink:href="#wuif8yynwe"/>
            </mask>
            <path fill="#382615" mask="url(#r71ce7dp1f)" d="M2.075 0H0l1.238 4.52v.004L.664 7.702h2.063l.575-3.197L6.024 0H3.87L2.537 2.614z"/>
        </g>
        <path d="m38.238 22.65.037-.103 1.26-3.4v.107l.08-.216.01 3.613h-1.387zm.24-5.814-4.187 9.491h2.565l.674-1.807h2.016l.081-.002.02 1.81h2.452l-.775-9.492h-2.845zM47.921 20.1c-.085.3-.22.557-.404.763-.2.224-.45.325-.809.325h-.003l-.571-.016.557-2.951h.574c.356 0 .781.174.781 1 0 .289-.042.585-.125.88m2.344-1.205c-.034-.703-.264-1.253-.686-1.635-.423-.383-1.02-.578-1.772-.578H44.76l-1.733 9.644h2.254l.671-3.79 1.688 3.79h2.424l-1.68-3.96.06-.024c.61-.255 1.15-.783 1.443-1.41a4.2 4.2 0 0 0 .383-1.787c0-.111-.002-.196-.006-.25M54.938 24.016a1.16 1.16 0 0 1-.878.376c-.268 0-.473-.079-.61-.234-.132-.15-.203-.376-.21-.674-.005-.174.01-.376.043-.6l.976-6.03h-2.436l-.965 5.957c-.05.319-.072.643-.063.963.016.587.143 1.095.379 1.512a2.34 2.34 0 0 0 1.006.95c.438.22.97.331 1.583.331.719 0 1.373-.152 1.944-.453.57-.3 1.044-.738 1.41-1.304.368-.569.617-1.253.739-2.036l.953-5.92h-2.436l-.982 6.067c-.073.485-.225.853-.453 1.095M65.76 16.807l-2.284 5.897-.844-5.897h-2.524l-1.691 9.52h2.224l.937-5.513.804 5.513h1.557l1.945-5.563-.126 5.563h2.198l.287-9.52z" fill="#382615"/>
    </g>
</svg>
