<svg width="240" height="40" viewBox="0 0 240 40" xmlns="http://www.w3.org/2000/svg" xmlns:xlink="http://www.w3.org/1999/xlink">
    <defs>
        <path id="xuv8nffsva" d="M0 0h37.527v26H0z"/>
        <path id="31hrlvje8c" d="M0 0h2.896v2.901H0z"/>
    </defs>
    <g fill="none" fill-rule="evenodd">
        <path d="M0 0h142v40H0z"/>
        <g transform="translate(4 7)">
            <mask id="dvyeauakfb" fill="#fff">
                <use xlink:href="#xuv8nffsva"/>
            </mask>
            <path d="M23.137 19.665c-1.913-.51-2.657-1.508-2.657-1.508-2.728-3.25-.189-7.677-.189-7.677 2.047-3.862 5.691-3.744 5.691-3.744h4.255l-.987 2.991H25.7c-1.74.212-2.423 2.096-2.423 2.096-.87 1.978-.046 3.462-.046 3.462.964 1.719 3.526 1.508 3.526 1.508l-1.08 3.037s-1.16.208-2.54-.165zm-7.007-5.11-.517 5.11h-3.457l.518-5.182-2.87-7.747h3.998l1.035 3.603 2.116-3.65h3.95l-4.773 7.866zm19.148-7.726-4.264 12.93H27.25l4.68-13.048h3.254c-2.292-2.866-6.1-5.071-10.677-6.09l-2.853 4.537h-3.714L20.98.09A27.472 27.472 0 0 0 18.763 0C8.4 0 0 5.82 0 13s8.401 13 18.764 13 18.763-5.82 18.763-13c0-2.233-.816-4.335-2.249-6.171z" fill="#00A66C" mask="url(#dvyeauakfb)"/>
        </g>
        <path d="m51.716 18.406-1.925-2.713h-3.18s3.353 4.642 3.426 4.755v4.826h2.946v-4.89l3.392-4.69h-2.934l-1.725 2.712zM78.15 15.693h-2.67v2.883c0 1.055.033 1.938.098 2.754-.453-.792-.921-1.558-1.38-2.195L71.7 15.693h-3.46v9.581h2.918v-2.978c0-1.178-.03-2.165-.077-3.096.53.905 1.142 1.802 1.6 2.454l2.567 3.62h3.148v-9.581h-.246zM119.833 15.693h-2.67v2.883c0 1.055.033 1.938.099 2.754-.453-.792-.922-1.558-1.381-2.195l-2.499-3.442h-3.459v9.581h2.917v-2.978c0-1.178-.03-2.165-.076-3.096.53.905 1.142 1.802 1.599 2.454l2.568 3.62h3.149v-9.581h-.247zM225.741 15.693h-2.67v2.883c0 1.055.033 1.938.1 2.754-.454-.792-.923-1.558-1.383-2.195l-2.498-3.442h-3.459v9.581h2.917v-2.978c0-1.178-.03-2.165-.077-3.096a37.332 37.332 0 0 0 1.6 2.454l2.569 3.62h3.148v-9.581h-.247zM90.894 18.625c0 1.341 1.048 2.303 3.204 2.941 1.393.4 1.678.708 1.678 1.049 0 .481-.566.768-1.515.768a7.137 7.137 0 0 1-2.666-.548l-.24-.105-.64 2.136.184.084c.62.284 1.89.589 3.216.589 3.433 0 4.656-1.58 4.656-3.06 0-1.387-.955-2.326-3.005-2.954-1.385-.443-1.877-.672-1.877-1.076 0-.312.428-.646 1.369-.646 1.039 0 1.823.259 2.196.414l.23.095.705-2.096-.206-.08c-.801-.316-1.775-.476-2.893-.476-2.63 0-4.396 1.192-4.396 2.965M196.223 18.625c0 1.341 1.047 2.303 3.202 2.941 1.394.4 1.68.708 1.68 1.049 0 .481-.567.768-1.516.768a7.137 7.137 0 0 1-2.666-.548l-.24-.105-.64 2.136.184.084c.62.284 1.89.589 3.215.589 3.434 0 4.658-1.58 4.658-3.06 0-1.387-.955-2.326-3.005-2.954-1.385-.443-1.878-.672-1.878-1.076 0-.312.429-.646 1.368-.646 1.04 0 1.824.259 2.199.414l.228.095.706-2.096-.207-.08c-.801-.316-1.775-.476-2.892-.476-2.63 0-4.396 1.192-4.396 2.965M102.894 20.889l.526-1.626.284-1.084.313 1.081.54 1.629h-1.663zm2.562-5.235h-3.34l-3.304 9.582h2.88s.633-1.344.718-1.622h2.653c.091.268.793 1.622.793 1.622h2.97l-3.37-9.582zM182.933 20.889l.527-1.626.284-1.084.312 1.081.54 1.629h-1.663zm2.563-5.235h-3.34l-3.304 9.582h2.88s.633-1.344.718-1.622h2.653c.091.268.794 1.622.794 1.622h2.97l-3.37-9.582zM143.822 15.635h-2.713v3.517h-3.636v-3.517h-2.946v9.581h2.946v-3.8h3.636v3.8h2.945v-9.581zM151.228 15.577H145.2v9.581h6.49v-2.156h-3.365v-1.7h2.892v-2.14h-2.892v-1.43h3.136v-2.155zM163.625 15.635h-3.3l-1.173 3.18a47.003 47.003 0 0 0-.815 2.609c-.211-.861-.452-1.736-.73-2.576l-1.092-3.213h-3.557l-.711 9.581h2.669l.217-3.681.107-2.34c.197.763.406 1.52.621 2.196l1.185 3.676h2.187l1.344-3.707c.279-.73.56-1.55.826-2.37l.063 2.517.184 3.71h2.779l-.595-9.582h-.209zM168.126 15.654h-2.714v9.582h2.946v-9.582zM214.294 15.654h-2.714v9.582h2.946v-9.582zM192.268 15.635h-2.714v9.581h6.098V23.02H192.5v-7.385zM61.73 23.44c-1.601 0-2.9-1.3-2.9-2.904a2.902 2.902 0 0 1 2.9-2.905c1.602 0 2.9 1.3 2.9 2.905a2.902 2.902 0 0 1-2.9 2.904m0-8.481a5.573 5.573 0 0 0-5.568 5.577 5.573 5.573 0 0 0 5.568 5.576 5.573 5.573 0 0 0 5.568-5.576 5.573 5.573 0 0 0-5.568-5.577M83.15 15.457a5.058 5.058 0 0 0-1.69 1.133 5.323 5.323 0 0 0-1.193 1.754 5.365 5.365 0 0 0-.406 2.068c0 .683.112 1.349.337 1.978.225.615.554 1.178.976 1.674a5.475 5.475 0 0 0 1.78 1.323 5.092 5.092 0 0 0 2.15.464c1.47 0 2.71-.515 3.686-1.53.988-1.036 1.53-2.418 1.61-4.108l.012-.244h-5.84v2.251h2.91c-.234.391-.508.725-.854.947-.426.268-.94.404-1.524.404-.389 0-.763-.08-1.111-.24a2.96 2.96 0 0 1-.98-.69 2.897 2.897 0 0 1-.628-.99 3.633 3.633 0 0 1-.204-1.233c0-.41.076-.81.229-1.188.152-.377.38-.72.676-1.017.274-.283.584-.496.926-.64.332-.135.7-.203 1.092-.203.473 0 .898.088 1.263.263.364.174.703.462 1.008.856l.07.09h2.614l-.146-.327c-.467-1.041-1.111-1.84-1.915-2.372-.798-.525-1.732-.79-2.777-.79a5.65 5.65 0 0 0-2.072.367M125.233 20.609c0 3.225 2.185 5.229 5.702 5.229 1.23 0 1.946-.152 2.433-.375l.167-.077-.102-2.297-.26.104c-.469.188-1.213.308-1.898.308-1.94 0-3.099-1.126-3.099-3.01 0-1.924 1.153-3.07 3.084-3.07.86 0 1.506.19 1.895.35l.24.1.285-2.331-.174-.086c-.435-.214-1.063-.34-2.34-.34-3.548 0-5.933 2.208-5.933 5.495M227.662 20.609c0 3.225 2.184 5.229 5.701 5.229 1.23 0 1.947-.152 2.434-.375l.166-.077-.102-2.297-.26.104c-.469.188-1.214.308-1.897.308-1.94 0-3.1-1.126-3.1-3.01 0-1.924 1.153-3.07 3.084-3.07.86 0 1.505.19 1.895.35l.241.1.284-2.331-.173-.086c-.435-.214-1.063-.34-2.34-.34-3.549 0-5.933 2.208-5.933 5.495M169.661 20.609c0 3.225 2.185 5.229 5.702 5.229 1.23 0 1.947-.152 2.434-.375l.166-.077-.102-2.297-.26.104c-.469.188-1.214.308-1.897.308-1.941 0-3.1-1.126-3.1-3.01 0-1.924 1.153-3.07 3.084-3.07.86 0 1.505.19 1.895.35l.241.1.284-2.331-.173-.086c-.435-.214-1.064-.34-2.34-.34-3.55 0-5.934 2.208-5.934 5.495M203.842 27.225a22.321 22.321 0 0 0 1.43-4.053l2.385.034c-.618 1.448-1.422 2.926-2.243 4.007l-1.572.012z" fill="#626366"/>
        <g transform="translate(237.104 22.847)">
            <mask id="vpvsfvaa6d" fill="#fff">
                <use xlink:href="#31hrlvje8c"/>
            </mask>
            <path d="M0 1.45a1.449 1.449 0 1 1 2.896 0A1.449 1.449 0 1 1 0 1.45" fill="#626366" mask="url(#vpvsfvaa6d)"/>
        </g>
    </g>
</svg>
