<svg width="120" height="40" viewBox="0 0 120 40" xmlns="http://www.w3.org/2000/svg">
    <g fill="none" fill-rule="evenodd">
        <path d="M0 0h120v40H0z"/>
        <g fill="#1D1D1B">
            <path d="M4 12v15.693h11.121V24.79H7.458v-12.79zM21 25.649c2.137 0 2.776-1.825 2.776-3.627 0-1.824-.639-3.648-2.775-3.648-2.114 0-2.753 1.824-2.753 3.648 0 1.802.639 3.627 2.753 3.627m0-9.627c3.59 0 5.902 2.374 5.902 6C26.903 25.627 24.59 28 21 28c-3.568 0-5.88-2.373-5.88-5.978 0-3.626 2.312-6 5.88-6M36.46 20.33c-.199-1.275-1.013-1.956-2.313-1.956-2.004 0-2.664 2.022-2.664 3.692 0 1.627.639 3.582 2.598 3.582 1.454 0 2.29-.923 2.49-2.307h3.016C39.191 26.35 37.098 28 34.103 28c-3.435 0-5.747-2.417-5.747-5.824 0-3.538 2.114-6.154 5.813-6.154 2.687 0 5.154 1.406 5.352 4.308H36.46zM41.415 12h3.127v8.418l3.941-4.088h3.7l-4.294 4.176 4.779 7.186H48.88l-3.127-5.076-1.211 1.164v3.912h-3.127zM53.658 16.33h2.973v1.582h.066c.792-1.274 2.158-1.89 3.48-1.89 3.324 0 4.162 1.868 4.162 4.681v6.99H61.21v-6.419c0-1.867-.55-2.79-2.003-2.79-1.696 0-2.423.945-2.423 3.252v5.956h-3.127V16.33zM66.298 12h3.458v12.79h7.663v2.902H66.298zM84.333 25.649c2.137 0 2.775-1.825 2.775-3.627 0-1.824-.638-3.648-2.775-3.648-2.114 0-2.752 1.824-2.752 3.648 0 1.802.638 3.627 2.752 3.627m0-9.627c3.59 0 5.902 2.374 5.902 6 0 3.605-2.312 5.978-5.902 5.978-3.568 0-5.88-2.373-5.88-5.978 0-3.626 2.312-6 5.88-6M99.792 20.33c-.198-1.275-1.013-1.956-2.313-1.956-2.003 0-2.664 2.022-2.664 3.692 0 1.627.639 3.582 2.599 3.582 1.453 0 2.29-.923 2.489-2.307h3.017c-.397 3.01-2.49 4.659-5.484 4.659-3.436 0-5.748-2.417-5.748-5.824 0-3.538 2.114-6.154 5.814-6.154 2.686 0 5.153 1.406 5.351 4.308h-3.061zM104.747 12h3.127v8.418l3.941-4.088h3.7l-4.294 4.176L116 27.692h-3.788l-3.127-5.076-1.211 1.164v3.912h-3.127z"/>
        </g>
    </g>
</svg>
