<svg width="61" height="40" viewBox="0 0 61 40" xmlns="http://www.w3.org/2000/svg" xmlns:xlink="http://www.w3.org/1999/xlink">
    <defs>
        <path id="5zgspr9n2a" d="M0 0h2.076v3.016H0z"/>
    </defs>
    <g fill="none" fill-rule="evenodd">
        <path d="M0 0h61v40H0z"/>
        <path fill="#EC6C00" d="M56.989 13.415H42.749l2.285 4.888h4.183l-4.407 9.422-.006.01v.001h5.068-.897 1.316l4.412-9.433h.006L57 13.415z"/>
        <path d="m39.557 18.32-3.96-8.467-3.96 8.468H26.15l.006-.01L32.848 4h5.498l4.403 9.415 2.285 4.888h-5.477v.018zM10.079 18.413a1.924 1.924 0 0 0-.326-.64c-.151-.2-.36-.38-.622-.535a3.164 3.164 0 0 0-.937-.354l-1.304-.296c-.307-.073-.549-.155-.72-.25-.112-.062-.157-.136-.157-.258 0-.165.063-.29.197-.393.153-.116.383-.175.682-.175.33 0 .575.046.73.135.171.098.342.24.505.42.13.152.24.26.343.333.128.09.287.135.469.135.254 0 .474-.074.657-.22a.794.794 0 0 0 .303-.647 1.26 1.26 0 0 0-.287-.784 2.32 2.32 0 0 0-.701-.579 4.142 4.142 0 0 0-2.972-.362c-.35.085-.67.221-.952.405-.29.19-.527.437-.702.738-.177.304-.266.668-.266 1.08 0 .23.026.446.074.644.05.208.148.41.287.6.14.193.338.366.592.518.245.144.548.264.908.36l1.76.45c.191.05.325.117.388.2a.446.446 0 0 1 .097.28c0 .173-.078.317-.245.45-.181.141-.44.215-.768.215-.193 0-.361-.02-.498-.058a1.275 1.275 0 0 1-.34-.144 1.111 1.111 0 0 1-.226-.183 3.408 3.408 0 0 1-.229-.285 2.248 2.248 0 0 0-.383-.408.851.851 0 0 0-.535-.167.87.87 0 0 0-.901.896c0 .242.071.485.209.723.135.23.337.443.6.636.26.193.59.348.982.46.386.112.83.168 1.32.168.968 0 1.726-.222 2.252-.66.538-.448.813-1.04.813-1.758 0-.238-.033-.47-.097-.69M13.912 18.323h-1.155l.59-1.764.565 1.764zm2.593 1.54-1.884-5.269c-.097-.281-.243-.478-.435-.589-.177-.1-.39-.15-.636-.15h-.371c-.24 0-.443.048-.604.142a.93.93 0 0 0-.387.494l-2.02 5.373a6.296 6.296 0 0 0-.11.345 1.247 1.247 0 0 0-.056.34c0 .28.093.51.278.681.18.169.41.253.69.253.601 0 .836-.326.924-.593l.352-.986h2.17l.346.99c.1.268.344.589.932.589.266 0 .498-.09.685-.267a.895.895 0 0 0 .293-.667c0-.092-.019-.204-.058-.34a6.185 6.185 0 0 0-.11-.346zM23.99 14.072c-.199-.144-.453-.218-.751-.218H22.8c-.299 0-.54.074-.713.22-.17.14-.299.36-.397.671l-1.122 3.69-1.138-3.692c-.096-.31-.226-.529-.394-.67-.175-.145-.414-.219-.713-.219h-.458c-.3 0-.552.074-.752.218-.224.163-.339.434-.339.801v5.6c0 .271.074.505.222.696.163.208.403.314.716.314.313 0 .555-.106.717-.314.148-.19.224-.425.224-.696v-2.759l1 3.142c.133.403.453.627.898.627.455 0 .773-.224.9-.63l1-3.139v2.759c0 .271.075.505.223.696.162.208.403.314.718.314.388 0 .602-.17.715-.314.147-.19.222-.425.222-.696v-5.6c0-.367-.114-.638-.34-.801" fill="#E50113"/>
        <path d="m8.193 25.297 1.462-1.548c.1-.1.177-.203.234-.306a.858.858 0 0 0 .096-.403.803.803 0 0 0-.32-.655 1.069 1.069 0 0 0-.667-.222.818.818 0 0 0-.457.125 1.87 1.87 0 0 0-.343.3l-2.034 2.247v-1.642c0-.3-.092-.55-.278-.741-.187-.192-.44-.29-.746-.29-.301 0-.55.098-.739.288-.19.191-.288.44-.288.743v5.568c0 .304.097.554.288.744.19.19.438.286.739.286.307 0 .559-.097.746-.289.186-.19.278-.44.278-.74v-1.458l.574-.576 1.635 2.538c.123.196.25.328.383.407.138.08.306.118.519.118.273 0 .515-.075.713-.226.22-.168.33-.427.33-.775 0-.168-.086-.376-.28-.67l-1.845-2.823z" fill="#EC6C00"/>
        <path d="M16.148 23.125c0-.404-.19-.626-.35-.74-.396-.283-.907-.277-1.198-.08-.134.09-.252.238-.359.446l-1.14 2.119-1.143-2.116a1.196 1.196 0 0 0-.358-.437c-.303-.212-.836-.218-1.242.067-.162.114-.356.336-.356.741 0 .173.056.355.168.539l1.88 3.137v1.96c0 .304.097.554.285.744.19.19.439.287.74.287.308 0 .559-.098.747-.29.184-.19.278-.44.278-.74V26.8l1.88-3.136c.111-.185.168-.367.168-.54" fill="#EC6C00"/>
        <path d="M19.114 28.077c-.315 0-.584-.055-.796-.16a1.241 1.241 0 0 1-.495-.435 1.98 1.98 0 0 1-.28-.683c-.06-.27-.09-.575-.09-.908 0-.622.146-1.124.433-1.49.278-.352.68-.524 1.228-.524.549 0 .95.172 1.229.524.287.367.433.868.433 1.49 0 .325-.031.627-.094.897-.06.259-.159.49-.291.687a1.324 1.324 0 0 1-.506.441 1.7 1.7 0 0 1-.77.161M21.86 23.2a3.2 3.2 0 0 0-1.18-.799c-.458-.183-.985-.275-1.566-.275-.58 0-1.108.092-1.567.275-.462.185-.86.453-1.179.799-.318.341-.559.746-.722 1.202a4.424 4.424 0 0 0-.244 1.49c0 .557.071 1.078.211 1.544.143.478.368.9.672 1.255.307.362.702.645 1.177.844.47.196 1.026.295 1.652.295.597 0 1.139-.107 1.605-.318.47-.21.868-.504 1.181-.872.312-.364.547-.789.7-1.26.15-.467.226-.967.226-1.488 0-.536-.082-1.038-.243-1.49a3.459 3.459 0 0 0-.723-1.202M28.335 22.163c-.3 0-.549.097-.739.287-.19.191-.286.44-.286.743v3.77c0 .385-.095.668-.287.843-.197.18-.495.271-.888.271s-.692-.091-.889-.271c-.19-.175-.287-.458-.287-.843v-3.77c0-.3-.093-.55-.279-.741-.186-.192-.437-.29-.746-.29-.3 0-.55.098-.74.288-.188.191-.285.44-.285.743v3.645c0 .989.294 1.745.87 2.247.567.494 1.36.744 2.356.744.997 0 1.788-.25 2.356-.744.577-.502.868-1.258.868-2.247v-3.645c0-.3-.093-.551-.277-.741-.187-.192-.438-.29-.747-.29M35.042 22.163c-.634 0-.996.365-.996 1v3.258l-2.302-3.729c-.208-.346-.55-.53-.988-.53-.398 0-.704.095-.908.279-.21.192-.318.49-.318.885v5.464c0 .637.362 1.001.996 1.001.633 0 .997-.364.997-1v-3.157l2.283 3.62c.127.207.264.346.422.425.15.076.36.112.642.112.395 0 .693-.112.887-.331.187-.213.281-.511.281-.89v-5.406c0-.636-.363-1.001-.996-1.001M43.031 25.761c-.15-.159-.373-.24-.664-.24h-1.923c-.543 0-.854.31-.854.849 0 .376.17.57.312.666.176.12.39.18.638.18h.724c-.068.229-.197.42-.39.582a1.422 1.422 0 0 1-.945.337c-.55 0-.959-.176-1.248-.537-.3-.37-.452-.88-.452-1.515 0-.764.158-1.332.469-1.685.306-.35.703-.52 1.211-.52.19 0 .354.017.491.051.13.031.234.072.314.122a.909.909 0 0 1 .196.157c.056.065.121.146.196.253.115.15.219.263.318.343a.76.76 0 0 0 .495.156c.255 0 .479-.07.664-.206.208-.154.313-.399.313-.73 0-.204-.07-.424-.21-.654a2.258 2.258 0 0 0-.581-.613 3.113 3.113 0 0 0-.914-.457 3.866 3.866 0 0 0-1.196-.175c-.557 0-1.076.085-1.54.253-.467.17-.878.424-1.217.753-.338.33-.603.742-.786 1.223a4.568 4.568 0 0 0-.272 1.623 5.2 5.2 0 0 0 .2 1.47c.134.46.349.874.633 1.23.292.361.674.646 1.137.85.458.201 1 .302 1.617.302.497 0 .934-.087 1.296-.263.22-.106.423-.242.605-.405.041.13.088.236.144.32.094.142.284.31.66.31a.765.765 0 0 0 .778-.77v-2.594c0-.286-.074-.511-.219-.666" fill="#EC6C00"/>
        <path d="M4.003 32.045 4 32.008c.02-.026.079-.04.176-.04l.206.003.12.002.053-.002c.194 0 .31.004.35.01a.421.421 0 0 1-.002.098l-.211.008-.042.012a.084.084 0 0 0-.01.033c0 .009.006.024.014.043a.728.728 0 0 1 .034.08l.14.394.334.84c.04.105.063.171.077.2.042.094.095.225.158.395l.16.378.028.058c.066-.109.165-.3.295-.571.1-.21.163-.352.188-.432l-.018-.045-.382-.874a9.943 9.943 0 0 1-.119-.26c-.059-.135-.1-.21-.127-.23-.026-.02-.105-.033-.237-.04l-.046-.012a.06.06 0 0 1-.019-.046.046.046 0 0 1 .02-.03c.048-.002.081-.002.1-.002l.14.003h.194l.109-.003h.116l.21-.011.06.001.035-.001c.02 0 .036.005.047.014.011.01.017.02.017.031a.095.095 0 0 1-.01.037.583.583 0 0 1-.127.023.544.544 0 0 0-.151.029c-.015.009-.023.021-.023.036 0 .028.058.178.173.45l.227.516c.07-.137.163-.354.284-.649a.779.779 0 0 0 .076-.27c0-.03-.012-.06-.038-.085-.02-.018-.062-.03-.128-.037l-.048-.006-.04-.018-.003-.018c0-.01.004-.021.012-.038a.096.096 0 0 1 .04-.02c.023-.002.126.001.311.011h.15l.093.002.157-.002c.01.002.03.005.053.011.011.012.017.023.017.035 0 .016-.006.03-.018.04a.216.216 0 0 1-.086.027.61.61 0 0 0-.254.089.416.416 0 0 0-.1.12l-.163.363c-.039.11-.07.193-.095.248a.927.927 0 0 1-.057.136l-.091.213c.015.04.043.101.081.187l.23.535c.01.026.042.09.093.2.051.108.095.21.127.303l.034-.108.005-.012.136-.356c.047-.108.094-.223.141-.343l.173-.435.256-.738c.028-.084.049-.167.067-.246l.005-.036a.171.171 0 0 0 .006-.036c0-.02-.01-.04-.03-.057a.783.783 0 0 0-.222-.07.715.715 0 0 1-.034-.02.208.208 0 0 1-.007-.042l.003-.017.117-.004.17.004.194-.002h.168l.068.005v.022c0 .01 0 .026-.003.047a1.216 1.216 0 0 0-.2.09.238.238 0 0 0-.06.058c-.015.02-.04.078-.078.17-.005.009-.052.143-.14.403a.927.927 0 0 0-.061.153l-.038.097-.036.09-.025.065c-.097.27-.204.556-.321.852l-.24.671-.096.254a.303.303 0 0 1-.095.004 14.62 14.62 0 0 0-.587-1.286l-.026.044c-.075.144-.166.336-.274.574l-.172.355c-.07.15-.129.254-.174.313l-.1.001-.361-.885-.298-.703-.263-.667c-.018-.043-.033-.084-.047-.123l-.029-.087a5.043 5.043 0 0 0-.124-.316c-.026-.044-.069-.07-.128-.082a.92.92 0 0 1-.131-.036M7.96 33.557h.105c.075 0 .303-.012.678-.035.059-.003.095-.009.108-.019.028-.028.04-.054.04-.076a.35.35 0 0 0-.044-.157.312.312 0 0 0-.137-.137.462.462 0 0 0-.215-.047.5.5 0 0 0-.414.195.448.448 0 0 0-.12.276zm1.244.082-.893.005h-.17c-.068 0-.138.004-.21.01a.39.39 0 0 0-.019.092l.003.022v.022l-.003.11c0 .09.028.202.085.335.057.131.14.232.245.301a.76.76 0 0 0 .601.08c.05-.017.122-.054.214-.115l.16-.132.014.09-.002.032a.974.974 0 0 1-.255.225 1.17 1.17 0 0 1-.313.14.996.996 0 0 1-.248.021.791.791 0 0 1-.312-.064.761.761 0 0 1-.358-.318 1.014 1.014 0 0 1-.129-.527c0-.067.01-.151.036-.255.026-.1.069-.212.132-.329a.682.682 0 0 1 .158-.194c.09-.072.167-.12.234-.15.097-.04.21-.06.336-.06a.668.668 0 0 1 .694.627v.032zM11.075 34.76c.226 0 .398-.062.514-.19.12-.128.178-.317.178-.57a.8.8 0 0 0-.199-.56.648.648 0 0 0-.496-.217.81.81 0 0 0-.358.071c-.058.027-.09.054-.097.079-.006.022-.01.183-.01.477 0 .351.007.557.022.615a.318.318 0 0 0 .139.2.593.593 0 0 0 .307.096m-1.06-2.75v-.012c0-.016.005-.036.017-.064.163-.03.337-.073.52-.132a.501.501 0 0 1 .048-.002.18.18 0 0 1 .012.047v.666l-.002.214.002.236-.005.193.005.076.182-.07.192-.058a2.74 2.74 0 0 1 .241-.034c.149 0 .282.026.4.073.072.03.145.079.216.148a.69.69 0 0 1 .158.221c.06.141.09.264.09.366 0 .164-.01.276-.032.34a1.121 1.121 0 0 1-.185.353.896.896 0 0 1-.304.22.971.971 0 0 1-.416.092.973.973 0 0 1-.384-.076 1.325 1.325 0 0 0-.202-.077c-.048 0-.106.063-.178.184l-.063-.003a5.746 5.746 0 0 1-.009-.367l.004-.334-.003-.17.006-.486-.006-.094.01-.23V32.624c.004-.26-.007-.41-.033-.45-.043-.063-.137-.12-.28-.165M12.091 34.827l-.01-.03c0-.01.008-.026.022-.046l.13-.028.185-.034a.056.056 0 0 0 .032-.03.574.574 0 0 0 .014-.172c0-.507-.003-.8-.01-.878-.007-.078-.02-.127-.039-.148-.022-.02-.074-.037-.162-.05a.472.472 0 0 1-.12-.028l.009-.07a1.26 1.26 0 0 0 .315-.165.798.798 0 0 0 .188-.265l.076.003c.01.074.014.242.014.497l-.003.038c0 .009.001.023.004.042a1.25 1.25 0 0 1 .213-.284l.05-.051a.51.51 0 0 1 .06-.057c.105-.062.181-.093.233-.093.065 0 .119.02.16.066a.226.226 0 0 1 .062.162c0 .052-.014.09-.044.118a.194.194 0 0 1-.139.057.516.516 0 0 1-.14-.039.538.538 0 0 0-.137-.037c-.043 0-.071.006-.088.019a.736.736 0 0 0-.15.202.403.403 0 0 0-.07.211l.011.37.004.443c.005.05.01.085.018.1.007.01.022.023.044.037.162.012.257.023.287.03.02.002.035.002.046.004.063.002.108.01.133.027.014.007.02.019.02.033 0 .01-.005.02-.017.036l-.248-.004-.093-.003-.135.003h-.228l-.123.006-.374.008zM13.841 32.07c0-.05.018-.093.057-.128a.19.19 0 0 1 .137-.053c.056 0 .104.02.145.06a.18.18 0 0 1 .062.13c0 .045-.02.09-.062.13a.197.197 0 0 1-.145.062.194.194 0 0 1-.194-.202m-.187 1.161.001-.065c.098-.028.15-.045.158-.05a.793.793 0 0 0 .316-.274.18.18 0 0 1 .042-.007l.026.003c.006.072.01.123.01.156 0 .007-.001.042-.005.102v.118l.004.643-.01.683c0 .055.01.095.029.116.02.022.077.044.171.072.06.016.103.031.133.043a.06.06 0 0 1 .008.028c0 .008-.003.019-.011.033a8.304 8.304 0 0 1-.223-.012 4.546 4.546 0 0 0-.244-.016l-.358.011a1.117 1.117 0 0 0-.129.013.128.128 0 0 1-.035-.008c-.007-.01-.012-.019-.012-.027 0-.02.015-.037.044-.049.005-.003.08-.02.226-.051.048-.01.079-.024.094-.044.024-.032.038-.082.038-.15.002-.115.004-.43.004-.943a.742.742 0 0 0-.014-.192c-.007-.019-.027-.04-.058-.062a.658.658 0 0 0-.205-.07M14.66 34.745c.036-.01.081-.019.129-.025.093-.014.15-.032.167-.048.02-.018.028-.059.028-.122l.005-.08c.001-.03.003-.069.003-.115l-.005-.684c0-.093-.013-.152-.036-.18-.04-.04-.115-.07-.223-.086v-.082a.648.648 0 0 0 .25-.116.788.788 0 0 0 .214-.273l.076.002c.004.07.006.12.006.15v.147l.002.041a.736.736 0 0 0 .063-.045c.088-.067.18-.122.274-.164.093-.043.176-.072.248-.088a.593.593 0 0 1 .158-.019.51.51 0 0 1 .313.099.447.447 0 0 1 .171.231c.025.09.039.265.039.53v.337l-.003.092c-.003.05-.004.108-.004.174 0 .105.004.17.013.2.007.018.026.039.058.058.142.019.226.041.25.07v.016a.187.187 0 0 1-.013.056H16.8l-.295-.004-.289.007a3.336 3.336 0 0 1-.296-.003l-.013-.046c0-.01.005-.021.016-.037a.525.525 0 0 1 .169-.035.387.387 0 0 0 .089-.015.201.201 0 0 0 .06-.035.224.224 0 0 0 .027-.09.79.79 0 0 0-.005-.062 11.605 11.605 0 0 1-.009-.513v-.116l.004-.18c0-.193-.037-.325-.116-.397a.429.429 0 0 0-.31-.11.682.682 0 0 0-.29.064.994.994 0 0 0-.277.198c-.002.073-.004.133-.004.184l.007.495c0 .258.004.416.011.475a.107.107 0 0 0 .015.048c.012.013.035.021.07.03.037.006.078.018.124.03.048.015.078.022.095.026.028.006.048.02.06.045l-.004.044h-.233l-.482-.007c-.11 0-.18.002-.21.002h-.056l-.006-.029c0-.01.003-.025.007-.045" fill="#F29700"/>
        <g transform="translate(16.752 32.984)">
            <mask id="bxkqrs3mqb" fill="#fff">
                <use xlink:href="#5zgspr9n2a"/>
            </mask>
            <path d="M.484.705c0 .134.022.247.06.337a.46.46 0 0 0 .165.201.402.402 0 0 0 .533-.082c.086-.1.129-.251.129-.453 0-.205-.045-.36-.134-.468A.406.406 0 0 0 .914.081c-.14 0-.248.05-.32.152-.073.1-.11.26-.11.472M.411 2.777a.817.817 0 0 0 .513.156c.147 0 .294-.023.439-.07a.643.643 0 0 0 .32-.202.408.408 0 0 0 .102-.246.3.3 0 0 0-.037-.143.327.327 0 0 0-.096-.117.451.451 0 0 0-.162-.072.993.993 0 0 0-.202-.03 9.748 9.748 0 0 0-.46-.028.63.63 0 0 0-.423.16.385.385 0 0 0-.146.3c0 .109.051.204.152.292m.163-.794a3.463 3.463 0 0 0-.171-.074 1.09 1.09 0 0 1-.215-.164.18.18 0 0 1-.044-.119c0-.037.01-.069.033-.094a.495.495 0 0 1 .195-.099c.096-.03.175-.06.238-.09a1.765 1.765 0 0 0-.092-.058C.296 1.147.188.957.188.714c0-.2.068-.37.208-.507A.742.742 0 0 1 .937 0c.098 0 .19.014.273.042.048.016.118.052.211.112.061.038.096.058.107.063a.28.28 0 0 0 .08.011c.025 0 .086-.006.183-.02.097-.011.155-.017.173-.017a.17.17 0 0 1 .085.02c.017.03.027.08.027.149a.08.08 0 0 1-.02.054A.084.084 0 0 1 2 .432a.92.92 0 0 1-.205-.04 1.06 1.06 0 0 0-.174-.039L1.58.358a.812.812 0 0 1 .094.35.648.648 0 0 1-.098.33.667.667 0 0 1-.278.26.77.77 0 0 1-.43.087.714.714 0 0 0-.378.104c-.055.033-.082.066-.082.095 0 .032.027.062.08.092.14.076.408.12.801.131.171.007.304.032.399.075a.454.454 0 0 1 .215.19.52.52 0 0 1 .073.262.522.522 0 0 1-.124.335.835.835 0 0 1-.371.25 1.593 1.593 0 0 1-.572.097c-.237 0-.421-.03-.55-.088a.707.707 0 0 1-.275-.19A.327.327 0 0 1 0 2.536c0-.057.03-.13.091-.219.059-.086.182-.178.368-.273l.115-.06" fill="#F29700" mask="url(#bxkqrs3mqb)"/>
        </g>
        <path d="M20.517 34.792a.627.627 0 0 0 .579-.385c.061-.136.092-.291.092-.47 0-.115-.024-.25-.072-.405a.674.674 0 0 0-.223-.345.566.566 0 0 0-.354-.116.73.73 0 0 0-.3.07.572.572 0 0 0-.26.267c-.069.132-.105.317-.105.56 0 .27.06.475.184.615.123.14.276.209.46.209m-.986-.872a.935.935 0 0 1 .255-.636.885.885 0 0 1 .274-.206c.136-.063.3-.093.495-.093.278 0 .51.096.696.286.186.19.28.421.28.688 0 .24-.1.453-.293.64-.196.187-.444.28-.742.28a1.01 1.01 0 0 1-.52-.144.95.95 0 0 1-.445-.815M21.512 34.745c.038-.01.08-.019.129-.025.094-.014.15-.032.169-.048.018-.018.028-.059.028-.122l.003-.08c.002-.03.002-.069.002-.115l-.004-.684c0-.093-.011-.152-.037-.18-.038-.04-.113-.07-.221-.086v-.082a.647.647 0 0 0 .249-.116.795.795 0 0 0 .214-.273l.076.002c.005.07.006.12.006.15v.147l.001.041a.567.567 0 0 0 .064-.045 1.485 1.485 0 0 1 .524-.252.579.579 0 0 1 .155-.019c.122 0 .226.033.315.099a.44.44 0 0 1 .17.231c.025.09.038.265.038.53v.337l-.002.092c-.002.05-.005.108-.005.174 0 .105.007.17.015.2.007.018.025.039.057.058.143.019.226.041.25.07v.016a.164.164 0 0 1-.013.056h-.044l-.294-.004-.289.007a3.317 3.317 0 0 1-.295-.003l-.014-.046c0-.01.005-.021.015-.037a.526.526 0 0 1 .17-.035.372.372 0 0 0 .088-.015.19.19 0 0 0 .06-.035.206.206 0 0 0 .027-.09c0-.009 0-.03-.004-.062a13.22 13.22 0 0 1-.01-.513v-.116l.006-.18c0-.193-.038-.325-.116-.397a.43.43 0 0 0-.31-.11c-.099 0-.196.02-.292.064-.095.046-.186.11-.275.198-.003.073-.006.133-.006.184l.008.495c0 .258.003.416.012.475.002.023.006.038.015.048.01.013.035.021.07.03.036.006.078.018.124.03.047.015.078.022.093.026.03.006.048.02.06.045l-.002.044h-.235l-.48-.007c-.111 0-.183.002-.211.002h-.057l-.005-.029c0-.01.003-.025.008-.045M23.875 32.048v-.05c.042-.014.087-.028.14-.042l.33-.11h.104v.122c0 1.227-.002 1.958-.01 2.194a25.53 25.53 0 0 0-.007.221c0 .167.007.26.02.28.018.025.073.046.163.056.091.01.146.02.161.032.013.004.018.016.018.03 0 .017-.003.028-.009.035-.006.007-.019.01-.037.01l-.235-.008-.29-.01-.375.019c-.023 0-.04-.004-.053-.014a.042.042 0 0 1-.014-.033c0-.015.005-.026.015-.034a.915.915 0 0 1 .16-.034.61.61 0 0 0 .167-.042c.015-.01.024-.035.029-.076.005-.052.01-.205.01-.453l-.005-.512.008-.534-.002-.533.006-.262c0-.052-.008-.09-.025-.113a.238.238 0 0 0-.105-.068 3.79 3.79 0 0 1-.164-.071" fill="#F29700"/>
        <path d="M24.563 33.057a.66.66 0 0 1 .08-.005h.108l.144-.006.19.008.153-.004c.083 0 .156.005.22.015.005.016.01.027.01.036l-.001.017a.44.44 0 0 1-.145.031.484.484 0 0 0-.2.05l-.004.024c0 .016.007.038.017.068.009.018.02.045.03.082a19.803 19.803 0 0 0 .433 1.23c.039-.09.086-.205.14-.343l.187-.532c.042-.115.076-.232.097-.347a.526.526 0 0 0 .013-.11.092.092 0 0 0-.028-.063c-.02-.02-.058-.035-.116-.049a1.1 1.1 0 0 1-.171-.05c-.009-.007-.015-.02-.016-.044.009-.008.02-.013.032-.02h.137l.15.005.223-.004.142.004.035-.004c.01 0 .028.004.052.006.015.007.022.02.022.036 0 .015-.007.028-.02.04l-.044.007a.454.454 0 0 0-.2.067c-.025.017-.047.056-.063.111a1.02 1.02 0 0 1-.029.082c-.008.016-.018.047-.033.088-.014.043-.032.09-.054.148l-.026.062-.003.011-.377 1.002-.277.754a3.543 3.543 0 0 0-.061.14 1.56 1.56 0 0 1-.102.174.612.612 0 0 1-.116.117l-.113.048a.258.258 0 0 1-.072.01c-.068 0-.117-.015-.146-.044a.155.155 0 0 1-.048-.12c0-.049.023-.091.069-.132.015-.002.03-.01.044-.017l.03-.007c.131.024.214.036.247.036a.185.185 0 0 0 .07-.057c.073-.108.135-.23.187-.364a.95.95 0 0 0 .078-.27c0-.051-.019-.125-.058-.222l-.248-.658a66.463 66.463 0 0 1-.306-.831.15.15 0 0 0-.039-.068l-.151-.056-.048-.009c-.024-.01-.038-.027-.038-.044l.013-.03zM27.675 32.608l.067.004.01.21-.007.277c.03 0 .05.002.055.002.04 0 .113-.002.221-.009a3.56 3.56 0 0 1 .334-.004c.004.03.005.053.005.071 0 .018-.005.05-.013.092h-.04l-.344.012-.171.003-.04.005a.428.428 0 0 0-.017.13l.005.336-.003.59c0 .156.019.258.06.309.036.051.095.077.174.077.038 0 .11-.01.217-.034a.39.39 0 0 0 .132-.075h.02c.014 0 .024.004.032.013a.043.043 0 0 1 .013.032l-.004.015a.568.568 0 0 1-.218.154.923.923 0 0 1-.33.049.413.413 0 0 1-.24-.068.3.3 0 0 1-.12-.16 1.857 1.857 0 0 1-.027-.4l.01-.502-.003-.242v-.09c0-.042-.001-.084-.006-.124l-.036-.003-.183.007-.018.002c-.016 0-.028-.004-.036-.011a.03.03 0 0 1-.013-.027.06.06 0 0 1 .017-.044.392.392 0 0 1 .102-.053.707.707 0 0 0 .265-.243c.018-.03.043-.088.075-.17.025-.062.042-.105.055-.13M28.459 34.764c.173-.033.273-.055.3-.072.016-.011.025-.035.025-.071l-.004-.148.004-.262-.005-.666.001-.25v-.175l.008-.216c0-.34-.004-.543-.012-.61-.004-.065-.018-.108-.038-.124-.036-.034-.134-.07-.293-.108v-.01c0-.011 0-.026.003-.046a.608.608 0 0 0 .06-.01.462.462 0 0 1 .058-.009c.176-.052.303-.1.385-.149h.107c.003.042.005.174.005.396l-.002.286.002.366-.008.452.003.09c.096-.109.162-.18.207-.217.077-.063.16-.112.247-.15a.728.728 0 0 1 .277-.054.54.54 0 0 1 .448.233c.067.091.1.218.1.386l-.006.227.003.128-.01.222a9.819 9.819 0 0 0-.008.326c0 .04 0 .091.004.156l.128.028c.084.018.15.036.195.051l-.002.068-.475-.013c-.027 0-.1.004-.218.009a4.168 4.168 0 0 1-.127.004h-.049a.07.07 0 0 1-.01-.033v-.019c.02-.028.059-.045.114-.054l.134-.032a.07.07 0 0 0 .03-.046 9.73 9.73 0 0 0 .022-.577l.005-.165a1.428 1.428 0 0 0-.042-.434.31.31 0 0 0-.141-.188.512.512 0 0 0-.483-.02.85.85 0 0 0-.177.131.755.755 0 0 0-.142.162.293.293 0 0 0-.027.147l.002.156-.004.162.005.279-.001.143.004.157a.259.259 0 0 0 .007.048l.314.077c.016.003.04.013.074.026l.005.026c0 .008-.002.02-.01.036a2.393 2.393 0 0 1-.098.003l-.173-.003-.385.005-.286.009-.066-.004-.002-.016c0-.011.005-.027.018-.044M30.95 33.557h.105c.076 0 .3-.012.678-.035.06-.003.095-.009.108-.019.027-.028.04-.054.04-.076a.336.336 0 0 0-.043-.157.3.3 0 0 0-.139-.137.461.461 0 0 0-.215-.047.5.5 0 0 0-.413.195.454.454 0 0 0-.12.276zm1.244.082-.895.005h-.168c-.068 0-.138.004-.211.01a.436.436 0 0 0-.018.092l.002.022v.022l-.002.11c0 .09.028.202.085.335.057.131.14.232.246.301a.759.759 0 0 0 .6.08c.05-.017.12-.054.214-.115l.16-.132.014.09c0 .011-.003.022-.003.032a.972.972 0 0 1-.254.225c-.102.064-.207.111-.313.14a.986.986 0 0 1-.248.021.766.766 0 0 1-.67-.382 1.014 1.014 0 0 1-.093-.782 1.31 1.31 0 0 1 .132-.329.647.647 0 0 1 .158-.194c.088-.072.168-.12.234-.15a.865.865 0 0 1 .337-.06.663.663 0 0 1 .604.336.607.607 0 0 1 .089.29v.033zM33.752 33.077l.59.013.004.073a.63.63 0 0 1-.008.088.574.574 0 0 1-.112.01h-.085c-.184 0-.312.005-.383.02a.568.568 0 0 0-.005.077l.001.034c.01.234.013.376.013.425l-.005.575c0 .083.013.155.042.213a.178.178 0 0 0 .092.077.815.815 0 0 0 .204.041l.166.025a.252.252 0 0 1-.008.07l-.03.003a8.163 8.163 0 0 0-.28-.011l-.165-.007-.56.018h-.074l-.002-.069a.325.325 0 0 0 .05-.012c.127-.023.21-.049.246-.08.016-.011.025-.033.031-.066.003-.016.007-.1.007-.25 0-.424-.005-.764-.013-1.017a.776.776 0 0 0-.178-.022c-.03 0-.076-.003-.14-.01l-.004-.024c0-.019.006-.033.02-.046.007-.006.07-.037.189-.094a.214.214 0 0 0 .098-.077.258.258 0 0 0 .017-.103c.002-.025.006-.066.014-.123.018-.154.032-.248.043-.285.026-.1.07-.199.135-.3.062-.098.137-.188.227-.261a.738.738 0 0 1 .22-.12.923.923 0 0 1 .283-.042c.143 0 .245.024.31.07a.144.144 0 0 1 .02.227.154.154 0 0 1-.116.044.45.45 0 0 1-.183-.042c-.122-.05-.193-.075-.209-.081a.36.36 0 0 0-.31.068.342.342 0 0 0-.129.193 3.092 3.092 0 0 0-.026.514c0 .097 0 .184.003.264M34.915 32.07c0-.05.02-.093.057-.128a.19.19 0 0 1 .136-.053c.056 0 .106.02.146.06a.183.183 0 0 1 .062.13c0 .045-.02.09-.062.13a.196.196 0 0 1-.146.062c-.054 0-.1-.02-.137-.056a.204.204 0 0 1-.056-.146m-.186 1.161.002-.065c.095-.028.148-.045.155-.05a.71.71 0 0 0 .17-.11.84.84 0 0 0 .147-.165.19.19 0 0 1 .043-.006l.025.003c.007.072.01.123.01.156l-.005.102v.118l.003.643-.008.683c-.001.055.008.095.028.116.02.022.075.044.172.072.06.016.103.031.133.043a.07.07 0 0 1 .006.028c0 .008-.002.019-.01.033a8.711 8.711 0 0 1-.223-.012 4.508 4.508 0 0 0-.245-.016l-.357.011a1.165 1.165 0 0 0-.129.013.114.114 0 0 1-.034-.008.04.04 0 0 1-.012-.027c0-.02.014-.037.042-.049a5.6 5.6 0 0 1 .226-.051c.05-.01.08-.024.094-.044.026-.032.037-.082.037-.15.004-.115.005-.43.005-.943a.94.94 0 0 0-.012-.192.167.167 0 0 0-.059-.062.652.652 0 0 0-.204-.07M35.734 34.745c.037-.01.08-.019.128-.025.095-.014.15-.032.17-.048.017-.018.027-.059.027-.122l.005-.08.001-.115-.004-.684c0-.093-.012-.152-.037-.18-.039-.04-.112-.07-.222-.086v-.082a.647.647 0 0 0 .25-.116.804.804 0 0 0 .215-.273l.075.002c.005.07.005.12.005.15v.147l.003.041c.018-.011.04-.026.064-.045.086-.067.18-.122.273-.164.094-.043.177-.072.25-.088a.58.58 0 0 1 .156-.019.51.51 0 0 1 .314.099.452.452 0 0 1 .17.231c.026.09.04.265.04.53v.337l-.005.092c-.002.05-.004.108-.004.174 0 .105.005.17.014.2.008.018.027.039.059.058.143.019.224.041.25.07v.016a.137.137 0 0 1-.015.056h-.043l-.293-.004-.29.007a3.32 3.32 0 0 1-.296-.003l-.013-.046c0-.01.005-.021.016-.037a.528.528 0 0 1 .167-.035.378.378 0 0 0 .09-.015.196.196 0 0 0 .06-.035.186.186 0 0 0 .028-.09l-.005-.062a15.933 15.933 0 0 1-.008-.513v-.116l.006-.18c0-.193-.04-.325-.118-.397a.428.428 0 0 0-.31-.11c-.1 0-.197.02-.292.064-.094.046-.186.11-.275.198a3.435 3.435 0 0 0-.006.184l.008.495c0 .258.004.416.01.475a.16.16 0 0 0 .016.048c.011.013.036.021.072.03.035.006.076.018.123.03.047.015.078.022.093.026.03.006.049.02.06.045l-.003.044h-.234l-.48-.007c-.112 0-.182.002-.212.002h-.057l-.004-.029c0-.01.003-.025.008-.045M38.229 33.557h.105c.075 0 .3-.012.676-.035.06-.003.095-.009.109-.019.027-.028.04-.054.04-.076a.358.358 0 0 0-.044-.157.308.308 0 0 0-.136-.137.472.472 0 0 0-.216-.047.5.5 0 0 0-.414.195.444.444 0 0 0-.12.276zm1.242.082-.893.005h-.17c-.067 0-.137.004-.209.01a.436.436 0 0 0-.02.092l.003.022v.022l-.003.11c0 .09.03.202.087.335a.65.65 0 0 0 .244.301.753.753 0 0 0 .6.08 1.06 1.06 0 0 0 .214-.115l.162-.132.011.09v.032a.99.99 0 0 1-.255.225c-.102.064-.207.111-.312.14a1 1 0 0 1-.249.021.783.783 0 0 1-.67-.382.996.996 0 0 1-.13-.527c0-.067.013-.151.037-.255.024-.1.07-.212.133-.329a.648.648 0 0 1 .158-.194c.09-.072.166-.12.233-.15a.863.863 0 0 1 .337-.06.668.668 0 0 1 .692.627v.032zM39.659 34.25c.055.144.096.235.125.277.056.084.123.15.202.196.079.048.165.07.256.07a.382.382 0 0 0 .252-.108.257.257 0 0 0 .09-.194.412.412 0 0 0-.105-.267c-.072-.08-.204-.158-.398-.23-.195-.075-.326-.154-.392-.238a.436.436 0 0 1-.101-.286.459.459 0 0 1 .31-.443.694.694 0 0 1 .267-.06c.105 0 .2.007.284.024a.747.747 0 0 1 .217.076c.011.077.02.188.028.337l.006.07a.393.393 0 0 1-.05.003h-.032a.655.655 0 0 0-.203-.296.448.448 0 0 0-.271-.107.284.284 0 0 0-.298.295c0 .068.023.127.066.18.045.051.15.112.314.178.164.066.283.129.358.187a.577.577 0 0 1 .22.444c0 .103-.034.2-.102.289a.529.529 0 0 1-.253.188.798.798 0 0 1-.274.055c-.187 0-.361-.034-.521-.104-.016-.013-.023-.035-.023-.067a.53.53 0 0 0-.006-.065 5.633 5.633 0 0 1-.035-.358c0-.019.003-.03.01-.036.008-.006.027-.01.059-.01M41.369 32.608l.07.004.008.21-.004.277c.029 0 .046.002.054.002.038 0 .111-.002.22-.009a3.52 3.52 0 0 1 .334-.004.434.434 0 0 1-.01.162h-.037l-.344.013-.172.003-.041.005a.476.476 0 0 0-.018.13l.008.336-.006.59c0 .156.021.258.06.309.04.051.098.077.175.077.039 0 .112-.01.22-.034a.432.432 0 0 0 .13-.075h.02c.014 0 .023.004.032.013a.044.044 0 0 1 .012.032l-.001.015a.565.565 0 0 1-.22.154.924.924 0 0 1-.328.049.407.407 0 0 1-.24-.068.288.288 0 0 1-.12-.16c-.02-.06-.028-.193-.028-.4l.008-.502-.002-.242v-.09c0-.042-.002-.084-.004-.124l-.038-.003-.183.007-.017.002c-.016 0-.03-.004-.038-.011-.008-.008-.013-.016-.013-.027 0-.019.007-.033.019-.044a.365.365 0 0 1 .1-.053.544.544 0 0 0 .136-.092.814.814 0 0 0 .13-.15c.017-.031.043-.089.075-.172l.053-.13M43.485 33.077l.589.013a.623.623 0 0 1 .005.073c0 .02-.002.05-.008.088a.577.577 0 0 1-.112.01h-.085c-.184 0-.311.005-.384.02a.976.976 0 0 0-.004.077l.003.034c.008.234.011.376.011.425l-.004.575c0 .083.012.155.04.213.017.032.049.058.094.077a.796.796 0 0 0 .204.041l.164.025a.374.374 0 0 1-.005.07l-.032.003a8.187 8.187 0 0 0-.278-.011l-.166-.007-.562.018h-.073l-.001-.069a.447.447 0 0 0 .048-.012c.129-.023.21-.049.247-.08.016-.011.026-.033.032-.066a36.179 36.179 0 0 0-.007-1.268.769.769 0 0 0-.177-.02 1.31 1.31 0 0 1-.142-.011l-.003-.024c0-.019.006-.033.02-.046a2.92 2.92 0 0 1 .19-.094.225.225 0 0 0 .098-.077.247.247 0 0 0 .017-.103c0-.025.005-.066.012-.123.02-.154.034-.248.044-.285.026-.1.07-.199.134-.3.063-.098.139-.188.228-.261a.73.73 0 0 1 .222-.12.92.92 0 0 1 .282-.042c.14 0 .245.024.31.07a.14.14 0 0 1 .065.12.155.155 0 0 1-.162.15.442.442 0 0 1-.182-.041c-.123-.05-.193-.075-.21-.081a.352.352 0 0 0-.31.068.337.337 0 0 0-.129.193c-.018.077-.026.247-.026.514 0 .097.001.184.003.264" fill="#F29700"/>
        <path d="M45.015 34.792a.629.629 0 0 0 .578-.385c.063-.136.093-.291.093-.47 0-.115-.023-.25-.071-.405a.676.676 0 0 0-.224-.345.558.558 0 0 0-.353-.116.744.744 0 0 0-.3.07.577.577 0 0 0-.259.267c-.07.132-.105.317-.105.56 0 .27.06.475.183.615s.277.209.458.209m-.985-.872a.94.94 0 0 1 .064-.326.906.906 0 0 1 .192-.31.91.91 0 0 1 .273-.206c.135-.063.3-.093.496-.093.276 0 .508.096.695.286a.95.95 0 0 1 .28.688c0 .24-.096.453-.292.64-.195.187-.443.28-.741.28-.185 0-.358-.048-.521-.144a.946.946 0 0 1-.446-.815M47.075 34.792a.629.629 0 0 0 .576-.385c.063-.136.095-.291.095-.47 0-.115-.024-.25-.072-.405a.679.679 0 0 0-.225-.345.559.559 0 0 0-.352-.116.748.748 0 0 0-.3.07.561.561 0 0 0-.258.267c-.073.132-.107.317-.107.56 0 .27.062.475.183.615.122.14.276.209.46.209m-.985-.872a.943.943 0 0 1 .255-.636.88.88 0 0 1 .274-.206c.135-.063.3-.093.495-.093.277 0 .509.096.696.286.185.19.279.421.279.688 0 .24-.098.453-.293.64a1.03 1.03 0 0 1-.741.28.942.942 0 0 1-.835-.47.914.914 0 0 1-.13-.489M49.612 34.578c.007-.1.01-.307.01-.619 0-.262-.013-.43-.037-.498-.023-.07-.085-.136-.184-.198a.59.59 0 0 0-.327-.093.564.564 0 0 0-.434.2c-.118.131-.176.328-.176.588 0 .228.063.41.191.546a.632.632 0 0 0 .478.204c.11 0 .21-.015.3-.045s.15-.059.179-.085m-.002-1.383.002-.065-.002-.262.002-.494c0-.137-.015-.224-.044-.262-.03-.037-.115-.075-.26-.114-.01-.003-.028-.007-.048-.014v-.024c0-.015 0-.03.004-.05.2-.02.374-.055.52-.105l.114-.002c.006.101.009.216.009.34l-.01.862.017.97-.007.516c0 .108.007.167.022.181.03.03.096.045.196.047.02 0 .048.001.085.005v.04l-.003.034-.142.029-.324.061a.573.573 0 0 1-.113.014v-.215a1.854 1.854 0 0 0-.119.044c-.23.1-.444.149-.639.149a.67.67 0 0 1-.358-.115.768.768 0 0 1-.28-.322.971.971 0 0 1-.097-.42c0-.128.02-.251.063-.369a.917.917 0 0 1 .168-.291.85.85 0 0 1 .191-.151.754.754 0 0 1 .202-.095c.132-.034.221-.051.266-.051.2 0 .365.03.493.09l.092.039" fill="#F29700"/>
    </g>
</svg>
