<svg width="26" height="26" viewBox="0 0 26 26" xmlns="http://www.w3.org/2000/svg">
    <path d="M13.113 8.254c.746 0 2.131-1.026 3.934-1.026 3.104 0 4.325 2.209 4.325 2.209s-2.388 1.22-2.388 4.183c0 3.342 2.974 4.493 2.974 4.493s-2.08 5.853-4.888 5.853c-1.29 0-2.293-.87-3.652-.87-1.385 0-2.76.902-3.655.902-2.565 0-5.805-5.551-5.805-10.014 0-4.391 2.743-6.694 5.315-6.694 1.673 0 2.97.964 3.84.964zm.777-4.414c1.45-1.912 3.467-1.921 3.467-1.921s.3 1.798-1.14 3.53c-1.54 1.848-3.289 1.546-3.289 1.546S12.6 5.54 13.89 3.84z" fill="#EEE" fill-rule="evenodd"/>
</svg>
