<svg width="150" height="150" viewBox="0 0 150 150" xmlns="http://www.w3.org/2000/svg">
    <g fill="none" fill-rule="evenodd">
        <path d="m15.774 65 20.952-36.292a20 20 0 0 1 17.321-10h41.906a20 20 0 0 1 17.32 10L134.227 65a20 20 0 0 1 0 20l-20.952 36.292a20 20 0 0 1-17.321 10H54.047a20 20 0 0 1-17.32-10L15.773 85a20 20 0 0 1 0-20z" fill="#F4F4F4"/>
        <g stroke="#222" stroke-width="2.5">
            <g transform="translate(81.5 71)">
                <ellipse cx="10" cy="4" rx="9.5" ry="4"/>
                <path d="M.5 4.5v17.355M19.5 4.5v17.355M.5 10c0 2.21 4.253 4 9.5 4s9.5-1.79 9.5-4M.5 16c0 2.21 4.253 4 9.5 4s9.5-1.79 9.5-4"/>
                <path d="M.5 21.855c0 2.209 4.253 4 9.5 4s9.5-1.791 9.5-4" stroke-linecap="round"/>
            </g>
            <path d="M93.905 65.968C90.934 56.705 82.25 50 72 50c-12.703 0-23 10.297-23 23s10.297 23 23 23c1.334 0 2.64-.114 3.912-.331"/>
            <path d="M71.5 61.894V72.5H61.223"/>
        </g>
    </g>
</svg>
