<svg width="150" height="150" viewBox="0 0 150 150" xmlns="http://www.w3.org/2000/svg">
    <g fill="none" fill-rule="evenodd">
        <path d="m15.774 65 20.952-36.292a20 20 0 0 1 17.321-10h41.906a20 20 0 0 1 17.32 10L134.227 65a20 20 0 0 1 0 20l-20.952 36.292a20 20 0 0 1-17.321 10H54.047a20 20 0 0 1-17.32-10L15.773 85a20 20 0 0 1 0-20z" fill="#F4F4F4"/>
        <g stroke="#222" stroke-width="2.5">
            <path d="M58.09 64.5a6 6 0 1 0 0-12 6 6 0 0 0 0 12zM72.984 81.099c-2.766-.562-5.02-2.486-6.762-5.772-2.613-4.93-5.27-5.858-8.454-5.858-3.184 0-6.768 1.76-6.768 6.155V96.2h13.702V82.12M91.892 64.5a6 6 0 1 0 0-12 6 6 0 0 0 0 12zM77 81.099c2.766-.562 5.02-2.486 6.762-5.772 2.613-4.93 5.271-5.858 8.455-5.858s6.767 1.76 6.767 6.155V96.2H85.282V82.12"/>
        </g>
    </g>
</svg>
